<?xml version="1.0" standalone="no"?><!DOCTYPE svg PUBLIC "-//W3C//DTD SVG 1.1//EN" "http://www.w3.org/Graphics/SVG/1.1/DTD/svg11.dtd"><svg t="1690812381379" class="icon" viewBox="0 0 1024 1024" version="1.1" xmlns="http://www.w3.org/2000/svg" p-id="16599" xmlns:xlink="http://www.w3.org/1999/xlink" width="300" height="300"><path d="M985.720471 849.468235C970.270118 884.224 949.398588 914.582588 923.105882 940.544 896.813176 966.535529 865.882353 986.925176 830.313412 1001.743059 794.744471 1016.530824 756.826353 1023.939765 716.619294 1023.939765 675.809882 1023.939765 637.590588 1016.530824 602.021647 1001.743059 566.452706 986.925176 535.521882 966.535529 509.229176 940.544 482.936471 914.582588 462.064941 884.224 446.584471 849.468235 431.134118 814.742588 423.393882 777.728 423.393882 738.454588 423.393882 699.181176 431.134118 662.166588 446.584471 627.410824 462.064941 592.685176 482.936471 562.326588 509.229176 536.335059 535.521882 510.343529 566.452706 489.803294 602.021647 474.714353 637.590588 459.595294 675.809882 452.035765 716.619294 452.035765 756.826353 452.035765 794.744471 459.595294 830.313412 474.714353 865.882353 489.803294 896.813176 510.343529 923.105882 536.335059 949.398588 562.326588 970.270118 592.685176 985.720471 627.410824 1001.200941 662.166588 1008.941176 699.181176 1008.941176 738.454588 1008.941176 777.728 1001.200941 814.742588 985.720471 849.468235ZM777.035294 652.318118C788.058353 656.986353 798.780235 662.467765 808.929882 668.551529L809.863529 669.093647 817.724235 669.093647 817.724235 623.164235 815.284706 622.230588C805.195294 618.255059 792.576 614.701176 777.788235 611.719529 764.325647 608.978824 750.983529 607.382588 738.032941 606.870588L738.032941 552.207059 705.897412 552.207059 705.897412 607.503059C678.038588 610.243765 655.811765 618.526118 639.849412 632.169412 622.983529 646.595765 614.430118 664.545882 614.430118 685.537882 614.430118 702.704941 619.700706 717.342118 630.061176 729.148235 640.331294 740.803765 657.317647 749.598118 680.387765 755.260235 684.393412 756.344471 688.850824 757.398588 693.609412 758.452706 697.464471 759.265882 701.560471 760.109176 705.897412 760.982588L705.897412 841.426824C696.771765 840.884706 688.037647 839.68 679.936 837.782588 670.509176 835.614118 662.196706 833.234824 655.239529 830.765176 649.065412 828.536471 642.620235 825.645176 636.084706 822.181647 629.488941 818.688 624.911059 816.037647 622.471529 814.290824L621.447529 813.537882 612.984471 813.537882 612.984471 859.738353 615.243294 860.762353C627.169882 866.093176 641.445647 870.490353 657.648941 873.863529 672.677647 876.965647 688.911059 878.682353 705.897412 879.043765L705.897412 951.235765 738.032941 951.235765 738.032941 877.688471C764.175059 874.706824 785.769412 866.273882 802.273882 852.630588 819.802353 838.144 828.687059 819.651765 828.687059 797.696 828.687059 778.541176 822.603294 763.120941 810.616471 751.917176 798.900706 740.984471 782.245647 733.184 760.982588 728.726588 757.488941 728.064 753.302588 727.160471 748.544 726.016 744.869647 725.172706 741.345882 724.419765 738.032941 723.817412L738.032941 643.945412C753.995294 645.270588 767.066353 648.071529 777.035294 652.318118ZM661.263059 680.267294C661.263059 669.364706 665.660235 661.112471 674.725647 654.998588 683.218824 649.246118 693.699765 645.632 705.897412 644.216471L705.897412 718.817882C689.152 714.992941 677.436235 710.384941 671.081412 705.084235 664.485647 699.602824 661.263059 691.501176 661.263059 680.267294ZM781.854118 802.966588C781.854118 815.013647 777.968941 823.747765 770.017882 829.650824 762.518588 835.252706 751.766588 838.987294 738.032941 840.764235L738.032941 765.921882C753.242353 769.084235 764.416 773.210353 771.282824 778.209882 778.390588 783.36 781.854118 791.431529 781.854118 802.966588ZM614.550588 375.024941C608.978824 379.843765 603.105882 383.186824 596.931765 384.993882 595.696941 388.608 594.462118 392.553412 593.227294 396.769882L588.559059 409.449412C587.324235 413.696 585.788235 418.213647 583.920941 423.032471 552.387765 435.742118 523.474824 452.638118 497.152 473.810824 470.859294 494.953412 448.150588 519.107765 428.965647 546.304 409.780706 573.500235 394.932706 603.256471 384.421647 635.572706 373.910588 667.919059 368.64 701.891765 368.64 737.551059 368.64 768.963765 372.826353 799.021176 381.168941 827.723294 389.511529 856.425412 401.106824 883.471059 415.984941 908.830118L390.896941 908.830118C372.976941 908.830118 352.105412 908.227765 328.282353 907.023059 304.459294 905.818353 279.883294 904.161882 254.494118 902.053647 229.135059 899.945412 203.926588 897.505882 178.868706 894.795294 153.810824 892.084706 131.102118 889.193412 110.682353 886.181647 90.262588 883.169882 72.944941 880.158118 58.699294 877.116235 44.483765 874.104471 35.508706 871.092706 31.804235 868.050824 24.997647 863.232 19.877647 848.263529 16.474353 823.205647 13.071059 798.117647 14.486588 765.952 20.660706 726.678588 23.130353 711.559529 28.250353 699.181176 35.960471 689.513412 43.700706 679.845647 53.127529 671.533176 64.271059 664.606118 75.414588 657.648941 87.792941 652.047059 101.406118 647.830588 115.019294 643.584 128.933647 639.518118 143.149176 635.572706 157.394824 631.657412 171.158588 627.410824 184.440471 622.893176 197.752471 618.375529 209.980235 612.773647 221.093647 606.117647 234.104471 598.256941 244.133647 590.576941 251.271529 583.017412 258.379294 575.457882 263.499294 568.048941 266.571294 560.820706 269.673412 553.562353 271.209412 546.002824 271.209412 538.172235 271.209412 530.281412 270.908235 521.547294 270.275765 511.879529 269.040941 497.965176 264.101647 486.972235 255.427765 478.810353 246.784 470.648471 237.176471 462.336 226.665412 453.872941 221.726118 449.656471 217.238588 443.753412 213.202824 436.193882 209.197176 428.634353 205.643294 420.924235 202.541176 413.093647 199.439059 404.028235 196.367059 394.661647 193.264941 384.993882 188.928 383.789176 184.591059 381.680941 180.284235 378.639059 176.549647 375.627294 172.544 371.410824 168.207059 365.959529 163.870118 360.508235 160.165647 352.647529 157.063529 342.377412 153.991529 332.107294 152.726588 322.740706 153.359059 314.307765 153.991529 305.844706 155.828706 298.285176 158.930824 291.629176 161.400471 284.973176 165.436235 278.648471 171.008 272.594824 171.008 249.645176 172.242824 226.695529 174.712471 203.715765 177.182118 184.380235 181.519059 163.538824 187.693176 141.191529 193.897412 118.814118 203.474824 98.876235 216.455529 81.377882 228.833882 64.451765 242.145882 50.688 256.361412 40.116706 270.607059 29.545412 285.455059 21.232941 300.905412 15.209412 316.385882 9.155765 331.685647 5.089882 346.834824 2.951529 361.984 0.843294 376.681412-0.210824 390.927059-0.210824 408.847059-0.210824 426.646588 1.746824 444.265412 5.692235 461.914353 9.607529 478.448941 14.908235 493.929412 21.534118 509.379765 28.190118 523.143529 35.749647 535.220706 44.212706 547.267765 52.675765 556.724706 61.108706 563.501176 69.601882 579.614118 88.907294 591.36 110.230588 598.768941 133.481412 606.208 156.732235 611.478588 178.928941 614.550588 200.101647 617.652706 224.256 619.188706 248.741647 619.188706 273.498353 623.525647 276.510118 626.928941 280.455529 629.398588 285.274353 631.868235 289.520941 633.886118 294.972235 635.422118 301.598118 636.988235 308.254118 637.138824 316.416 635.904 326.083765 634.669176 339.365647 632.048941 349.786353 628.013176 357.345882 623.977412 364.905412 619.52 370.778353 614.550588 375.024941Z" p-id="16600"></path></svg>