<svg xmlns="http://www.w3.org/2000/svg" version="1.1" xmlns:xlink="http://www.w3.org/1999/xlink" xmlns:svgjs="http://svgjs.dev/svgjs" width="1440" height="560" preserveAspectRatio="none" viewBox="0 0 1440 560"><g mask="url(&quot;#SvgjsMask1140&quot;)" fill="none"><rect width="1440" height="560" x="0" y="0" fill="#0e2a47"></rect><g transform="translate(0, 0)" stroke-linecap="round" stroke="url(&quot;#SvgjsLinearGradient1141&quot;)"><path d="M520 264.09 L520 295.91" stroke-width="15"></path><path d="M540 238.18 L540 321.82" stroke-width="15"></path><path d="M560 208.01 L560 351.99" stroke-width="15"></path><path d="M580 220.78 L580 339.22" stroke-width="15"></path><path d="M600 232.31 L600 327.69" stroke-width="15"></path><path d="M620 213.39 L620 346.61" stroke-width="15"></path><path d="M640 253.07 L640 306.93" stroke-width="15"></path><path d="M660 239.15 L660 320.85" stroke-width="15"></path><path d="M680 206.26 L680 353.74" stroke-width="15"></path><path d="M700 223.44 L700 336.56" stroke-width="15"></path><path d="M720 229.91 L720 330.09" stroke-width="15"></path><path d="M740 222.49 L740 337.51" stroke-width="15"></path><path d="M760 270.31 L760 289.69" stroke-width="15"></path><path d="M780 256.27 L780 303.73" stroke-width="15"></path><path d="M800 209.7 L800 350.3" stroke-width="15"></path><path d="M820 253.44 L820 306.56" stroke-width="15"></path><path d="M840 236.83 L840 323.17" stroke-width="15"></path><path d="M860 255.24 L860 304.76" stroke-width="15"></path><path d="M880 265.71 L880 294.29" stroke-width="15"></path><path d="M900 262.38 L900 297.62" stroke-width="15"></path><path d="M920 265.24 L920 294.76" stroke-width="15"></path></g></g><defs><mask id="SvgjsMask1140"><rect width="1440" height="560" fill="#ffffff"></rect></mask><linearGradient x1="570.0096" y1="129.9928" x2="869.9903999999999" y2="430.0072" gradientUnits="userSpaceOnUse" id="SvgjsLinearGradient1141"><stop stop-color="#3a7cc3" offset="0"></stop><stop stop-color="#dd1133" offset="1"></stop></linearGradient></defs></svg>